<svg width="597" height="437" viewBox="0 0 597 437" fill="none" xmlns="http://www.w3.org/2000/svg">
<path opacity="0.42" d="M189.591 46.7737C171.084 64.9665 157.119 87.4619 136.598 103.472C121.491 115.297 103.18 123.229 89.9175 136.955C70.5859 156.967 65.0318 185.794 62.0253 213.065C59.1218 239.444 57.8199 266.024 59.3934 292.504C61.6038 329.462 71.1198 368.913 100.098 393.01C110.242 401.433 122.24 407.473 134.472 412.64C167.709 426.67 203.273 434.78 239.466 436.582C258.198 437.491 277.07 436.727 295.868 435.945L368.221 432.925C388.826 432.07 409.357 431.215 429.887 429.832C455.578 428.113 482.571 425.093 503.374 410.366C530.629 391.063 540.978 355.196 537.71 322.586C534.441 289.975 519.745 259.638 505.303 230.039C490.86 200.439 476.203 170.066 472.99 137.456C472.316 130.579 472.119 123.511 469.459 117.098C466.593 110.212 461.133 104.718 456.262 98.987C442.85 83.223 433.278 64.7482 420.915 48.2291C368.717 -21.5584 247.314 -9.89684 189.591 46.7737Z" fill="#68E1FD"/>
<path opacity="0.42" d="M302.349 407C416.455 407 508.956 396.041 508.956 382.522C508.956 369.003 416.455 358.043 302.349 358.043C188.244 358.043 95.7432 369.003 95.7432 382.522C95.7432 396.041 188.244 407 302.349 407Z" fill="#68E1FD"/>
<path d="M215.732 354.05L216.865 365.611C216.865 365.611 212.304 372.315 206.357 372.743C200.409 373.171 198.377 370.396 198.377 370.396L199.313 353.386" fill="#AD7862"/>
<path d="M132.814 355.278L131.643 367.158C131.643 367.158 136.326 374.035 142.442 374.48C148.559 374.926 150.638 372.07 150.638 372.07L149.636 354.596" fill="#AD7862"/>
<path d="M147.463 95.5304C147.463 95.5304 123.804 106.628 123.27 110.267C122.736 113.905 125.949 203.377 125.949 203.377C125.949 203.377 133.629 213.047 157.147 213.047C181.237 213.047 188.898 206.516 188.514 203.241C187.184 191.952 193.431 110.994 192.898 107.165C192.364 103.335 170.541 95.6031 170.541 95.6031L147.463 95.5304Z" fill="#68E1FD"/>
<path opacity="0.58" d="M162.177 152.319C162.177 152.319 133.685 157.277 131.924 155.567C130.332 154.02 123.495 108.92 123.27 110.285C122.886 112.904 124.441 155.858 125.34 179.79C139.97 175.497 170.569 160.415 170.569 160.415C168.301 157.244 165.457 154.5 162.177 152.319V152.319Z" fill="url(#paint0_linear_3_84)"/>
<path d="M151.162 152.647C153.221 151.134 155.37 149.74 157.597 148.471C160.069 147.189 171.318 146.07 173.332 146.652C175.345 147.234 174.465 148.371 172.077 148.817C169.688 149.263 167.637 148.762 167.113 150.163C166.588 151.564 169.773 154.439 169.557 156.886C169.342 159.332 169.417 159.169 163.675 161.079C157.934 162.989 152.502 165.564 151.031 161.243C149.561 156.922 149.242 153.274 151.162 152.647Z" fill="#BB826C"/>
<path d="M147.538 81.6675C147.538 81.6675 147.36 89.6814 147.463 95.5485C147.538 99.9239 149.083 108.284 158.702 108.284C168.321 108.284 169.379 97.6225 169.22 95.5304C169.098 94.0386 169.838 90.9822 169.22 86.2066C168.574 81.1217 148.071 78.1108 147.538 81.6675Z" fill="#BB826C"/>
<path d="M147.406 94.8208C146.722 94.5559 145.961 94.5459 145.27 94.7927C144.578 95.0395 144.005 95.5258 143.66 96.158C142.218 98.4958 142.133 103.19 143.66 109.602C145.187 116.015 146.47 117.653 146.47 117.653C146.47 117.653 152.754 109.011 157.175 108.666C157.147 108.666 148.437 107.001 147.406 94.8208Z" fill="#F3FCFF"/>
<path d="M169.286 94.8208C169.97 94.5559 170.731 94.5459 171.422 94.7927C172.114 95.0395 172.687 95.5258 173.032 96.158C174.474 98.4958 174.559 103.19 173.032 109.602C171.505 116.015 170.222 117.653 170.222 117.653C170.222 117.653 163.938 109.011 159.517 108.666C159.545 108.666 168.283 107.001 169.286 94.8208Z" fill="#F3FCFF"/>
<path d="M125.949 203.377C125.949 203.377 124.197 216.631 127.56 270.49C130.688 320.666 131.578 355.796 131.578 355.796C131.578 355.796 131.915 359.899 140.813 360.017C149.711 360.135 152.052 354.432 152.052 354.432L160.791 225.763L197.047 357.07C197.047 357.07 207.724 363.037 216.05 358.562C221.951 355.378 188.542 203.241 188.542 203.241C188.542 203.241 159.957 218.459 125.949 203.377Z" fill="#525263"/>
<path opacity="0.58" d="M125.949 203.377C125.949 203.377 124.197 216.631 127.56 270.49C130.688 320.666 131.578 355.796 131.578 355.796C131.578 355.796 131.915 359.899 140.813 360.017C149.711 360.135 152.052 354.432 152.052 354.432L160.791 225.763L197.047 357.07C197.047 357.07 207.724 363.037 216.05 358.562C221.951 355.378 188.542 203.241 188.542 203.241C188.542 203.241 159.957 218.459 125.949 203.377Z" fill="url(#paint1_linear_3_84)"/>
<path d="M127.672 106.128C124.306 108.358 121.399 111.181 119.102 114.451C115.356 119.827 109.165 164.909 112.021 177.116C113.23 182.283 156.979 162.998 156.979 162.998C156.979 162.998 155.948 154.357 151.359 151.41C151.359 151.41 129.883 155.885 128.281 154.329C126.679 152.774 127.672 106.128 127.672 106.128Z" fill="#68E1FD"/>
<path d="M176.544 53.3686C176.891 55.1878 177.537 56.8525 177.856 58.7172C178.286 61.1824 178.408 63.7748 179.607 65.9944C180.132 66.9859 180.862 67.9956 180.693 69.0962C180.525 70.1969 179.317 71.0701 178.436 71.9434C175.729 74.6723 176.713 78.984 175.879 82.4315C174.943 86.0701 177.631 94.3569 166.082 90.873C162.795 89.8815 146.788 85.5152 145.646 75.8821C144.222 63.8385 136.617 48.593 151.621 43.5081C157.812 41.4068 167.881 38.2595 173.163 43.9447C175.214 46.146 176.095 49.2934 176.385 52.186C176.423 52.6136 176.479 52.9956 176.544 53.3686Z" fill="#BB826C"/>
<path d="M168.358 33.6749C169.49 33.6119 170.622 33.7838 171.68 34.1791C172.738 34.5743 173.697 35.1839 174.493 35.9672C175.43 37.0132 176.085 38.4778 177.443 38.9144C178.09 39.1236 178.802 39.0508 179.457 39.2419C181.452 39.8058 181.958 42.3619 181.602 44.3449C181.246 46.328 180.403 48.3837 181.049 50.294C181.423 51.0124 181.667 51.7877 181.771 52.5863C181.724 54.0235 179.991 54.915 178.511 54.8149C177.031 54.7148 175.701 53.978 174.259 53.5687C171.768 52.8501 169.089 53.1593 166.504 53.4777C164.768 53.5775 163.071 54.0136 161.512 54.7603C160.735 55.1419 160.091 55.7369 159.66 56.4711C159.228 57.2054 159.029 58.0466 159.086 58.8901C159.319 59.538 159.38 60.2325 159.264 60.9095C158.997 61.3505 158.659 61.7467 158.262 62.0829C157.063 63.4383 157.484 65.4759 157.859 67.2224C158.271 69.1417 157.606 74.3176 155.049 71.7706C153.316 70.0423 154.394 67.2224 151.396 66.0944C147.004 64.4116 145.205 71.625 149.814 76.9191C154.422 82.2132 150.104 85.5971 147.116 86.4885C144.306 87.3163 140.916 74.2084 140.466 72.662C138.724 66.5947 135.099 56.2248 138.593 50.3759C139.661 48.6021 141.028 46.9101 141.403 44.918C141.674 43.5808 141.496 42.1891 141.955 40.8792C142.32 40.035 142.876 39.2811 143.581 38.6734C144.286 38.0657 145.123 37.6195 146.03 37.368C147.861 36.8729 149.749 36.598 151.649 36.5493C154.918 36.2742 158.159 35.7511 161.343 34.9847C163.565 34.3044 165.859 33.8651 168.18 33.6749H168.358Z" fill="#3F3D56"/>
<path d="M169.426 91.6644C169.426 91.6644 157.737 87.4801 152.445 85.1241C152.445 85.1241 163.451 95.2757 169.136 95.2029L169.426 91.6644Z" fill="#AD7862"/>
<path d="M192.897 107.165C192.897 107.165 206.366 165.036 207.199 172.486C208.033 179.936 198.217 183.665 193.825 182.492C184.075 179.827 185.629 163.653 185.629 163.653L192.897 107.165Z" fill="#68E1FD"/>
<path d="M206.872 170.366L220.556 213.274L211.189 219.696C211.189 219.696 191.427 192.307 189.863 184.147C188.299 175.988 187.727 164.827 195.988 165.045" fill="#68E1FD"/>
<path d="M224.48 223.68C223.74 221.807 222.71 219.987 222.148 218.068C221.801 216.876 221.857 215.666 221.014 214.666C218.298 211.455 213.456 213.465 212.248 216.867C211.584 219.131 211.763 221.55 212.754 223.699C213.634 225.873 214.936 227.847 215.994 229.939C217.166 231.989 217.749 234.308 217.68 236.652C217.47 237.819 217.329 238.998 217.259 240.181C217.242 240.563 217.353 240.94 217.577 241.255C218.214 242.001 219.45 241.564 220.275 240.982C225.52 237.125 226.662 229.375 224.48 223.68Z" fill="#BB826C"/>
<path d="M211.152 221.17L208.436 217.222L219.581 210.209L222.691 214.493L211.152 221.17Z" fill="#F3FCFF"/>
<path d="M153.298 148.981L158.533 163.617L154.084 166C154.084 166 147.191 152.501 146.863 151.837C146.535 151.173 153.298 148.981 153.298 148.981Z" fill="#F3FCFF"/>
<path d="M115.028 368.422C112.602 369.195 109.98 370.514 109.296 372.907C108.612 375.299 110.167 377.728 112.284 378.983C114.4 380.238 116.967 380.502 119.449 380.639C129.191 381.188 138.961 380.171 148.362 377.628C149.567 377.403 150.683 376.855 151.584 376.045C152.67 374.853 152.698 373.089 152.67 371.497L152.548 364.292C152.59 363.884 152.48 363.474 152.239 363.137C152.067 362.987 151.863 362.873 151.642 362.804C151.421 362.735 151.187 362.712 150.956 362.737C146.741 362.655 143.22 363.719 139.117 362.182C136.476 361.191 134.294 359.799 131.625 361.227C129.592 362.291 128.281 364.274 126.136 365.284C122.671 366.912 118.643 367.294 115.028 368.422Z" fill="#525263"/>
<path d="M180.937 370.051C178.502 370.824 175.879 372.143 175.196 374.535C174.512 376.927 176.067 379.356 178.193 380.602C180.319 381.849 182.876 382.131 185.348 382.267C195.091 382.817 204.86 381.799 214.262 379.256C215.469 379.037 216.586 378.488 217.483 377.673C218.57 376.473 218.607 374.717 218.579 373.125L218.448 365.921C218.491 365.511 218.385 365.099 218.148 364.756C217.972 364.608 217.767 364.496 217.544 364.428C217.322 364.359 217.088 364.334 216.856 364.356C212.641 364.283 209.12 365.339 205.027 363.81C202.385 362.819 200.203 361.427 197.477 362.855C195.454 363.92 194.134 365.903 191.989 366.912C188.57 368.504 184.524 368.895 180.937 370.051Z" fill="#525263"/>
<path opacity="0.58" d="M115.028 368.422C112.602 369.195 109.98 370.514 109.296 372.907C108.612 375.299 110.167 377.728 112.284 378.983C114.4 380.238 116.967 380.502 119.449 380.639C129.191 381.188 138.961 380.171 148.362 377.628C149.567 377.403 150.683 376.855 151.584 376.045C152.67 374.853 152.698 373.089 152.67 371.497L152.548 364.292C152.59 363.884 152.48 363.474 152.239 363.137C152.067 362.987 151.863 362.873 151.642 362.804C151.421 362.735 151.187 362.712 150.956 362.737C146.741 362.655 143.22 363.719 139.117 362.182C136.476 361.191 134.294 359.799 131.625 361.227C129.592 362.291 128.281 364.274 126.136 365.284C122.671 366.912 118.643 367.294 115.028 368.422Z" fill="url(#paint2_linear_3_84)"/>
<path opacity="0.58" d="M180.937 370.051C178.502 370.824 175.879 372.143 175.196 374.535C174.512 376.927 176.067 379.356 178.193 380.602C180.319 381.849 182.876 382.131 185.348 382.267C195.091 382.817 204.86 381.799 214.262 379.256C215.469 379.037 216.586 378.488 217.483 377.673C218.57 376.473 218.607 374.717 218.579 373.125L218.448 365.921C218.491 365.511 218.385 365.099 218.148 364.756C217.972 364.608 217.767 364.496 217.544 364.428C217.322 364.359 217.088 364.334 216.856 364.356C212.641 364.283 209.12 365.339 205.027 363.81C202.385 362.819 200.203 361.427 197.477 362.855C195.454 363.92 194.134 365.903 191.989 366.912C188.57 368.504 184.524 368.895 180.937 370.051Z" fill="url(#paint3_linear_3_84)"/>
<path d="M184.299 129.551L185.545 176.234L188.851 180.936L184.299 129.551Z" fill="#68E1FD"/>
<path d="M151.247 110.257C151.247 110.257 157.372 126.258 158.084 127.541C158.796 128.823 163.966 110.849 163.966 110.849C163.966 110.849 166.017 107.929 157.662 108.256C155.363 108.27 153.124 108.969 151.247 110.257V110.257Z" fill="#F3FCFF"/>
<path d="M188.439 202.468C188.439 202.468 170.644 207.18 162.139 206.879C153.635 206.579 125.874 201.158 125.874 201.158C125.874 201.158 122.783 212.747 124.403 213.893C126.024 215.039 134.341 214.329 146.114 214.802C157.887 215.275 165.052 220.469 174.446 220.26C183.841 220.051 189.432 207.662 189.432 207.662L188.439 202.468Z" fill="#F3FCFF"/>
<path d="M181.947 96.9463L163.889 211.693C162.83 218.422 167.588 224.711 174.516 225.739L370.159 254.781C377.088 255.809 383.563 251.188 384.622 244.459L402.68 129.712C403.739 122.983 398.981 116.695 392.052 115.666L196.409 86.6245C189.481 85.596 183.006 90.2172 181.947 96.9463Z" fill="#68E1FD"/>
<path d="M181.291 101.128L163.233 215.874C162.174 222.603 166.932 228.892 173.861 229.921L369.503 258.962C376.432 259.991 382.907 255.37 383.966 248.64L402.024 133.894C403.083 127.165 398.325 120.876 391.396 119.848L195.754 90.806C188.825 89.7775 182.35 94.3987 181.291 101.128Z" fill="#68E1FD"/>
<path opacity="0.58" d="M402.023 133.881L383.965 248.641C383.837 249.454 383.624 250.253 383.329 251.024C382.319 253.692 380.392 255.94 377.873 257.387C375.354 258.834 372.398 259.391 369.504 258.965L173.903 229.921C172.251 229.682 170.664 229.128 169.233 228.293C167.802 227.457 166.555 226.355 165.563 225.051C164.571 223.746 163.854 222.264 163.453 220.689C163.052 219.115 162.975 217.479 163.226 215.876L171.505 163.308L181.284 101.125C181.794 97.8936 183.603 94.9911 186.314 93.0538C189.025 91.1166 192.417 90.3029 195.745 90.7911L391.393 119.845C394.718 120.338 397.706 122.094 399.699 124.726C401.693 127.358 402.529 130.651 402.023 133.881V133.881Z" fill="url(#paint4_linear_3_84)"/>
<path opacity="0.58" d="M391.599 198.456L383.329 251.024C382.319 253.692 380.392 255.94 377.873 257.387C375.354 258.834 372.398 259.391 369.504 258.965L173.903 229.921C172.251 229.682 170.664 229.128 169.233 228.293C167.802 227.457 166.555 226.355 165.563 225.051C164.571 223.746 163.854 222.264 163.453 220.689C163.052 219.115 162.975 217.479 163.226 215.876L171.505 163.308C172.513 160.639 174.44 158.39 176.96 156.943C179.479 155.496 182.436 154.939 185.33 155.366L380.978 184.42C382.624 184.665 384.205 185.221 385.629 186.059C387.054 186.897 388.295 187.998 389.281 189.302C390.268 190.605 390.98 192.084 391.378 193.655C391.775 195.226 391.85 196.857 391.599 198.456V198.456Z" fill="url(#paint5_linear_3_84)"/>
<path d="M190.791 132.373L186.905 157.065C186.318 160.795 188.955 164.28 192.795 164.85L223.506 169.409C227.346 169.979 230.935 167.418 231.522 163.688L235.407 138.996C235.994 135.267 233.357 131.781 229.517 131.211L198.806 126.652C194.966 126.082 191.377 128.644 190.791 132.373Z" fill="#FDB523"/>
<path d="M232.769 154.784L232.132 158.832L219.319 156.931C219.05 157.726 218.602 158.453 218.008 159.059C217.413 159.665 216.687 160.134 215.882 160.433L215.432 160.57L214.973 160.515C213.915 160.388 204.671 159.269 202.217 158.605C199.763 157.941 198.517 154.966 198.049 153.047L187.849 151.528L188.486 147.48L201.767 149.454L202.001 151.018C202.226 152.729 202.938 154.475 203.425 154.702C204.905 155.103 210.805 155.903 214.823 156.394C215.314 155.885 215.576 155.208 215.554 154.511L215.695 152.274L232.769 154.784Z" fill="#EFA92B"/>
<path d="M233.958 147.225L234.595 143.177L221.792 141.276C221.776 140.439 221.57 139.616 221.188 138.866C220.805 138.116 220.257 137.457 219.581 136.937L219.197 136.673L218.738 136.592C217.689 136.41 208.436 134.772 205.982 134.709C203.322 134.636 201.299 137.11 200.287 138.811L190.088 137.301L189.451 141.349L202.732 143.323L203.397 141.904C204.137 140.348 205.392 138.893 205.898 138.811C207.424 138.811 213.306 139.803 217.296 140.503C217.599 141.133 217.643 141.853 217.418 142.513L216.856 144.687L233.958 147.225Z" fill="#EFA92B"/>
<path d="M189.077 143.878L188.943 144.732L233.458 151.34L233.593 150.486L189.077 143.878Z" fill="#EFA92B"/>
<path d="M186.971 157.276L186.836 158.131L231.352 164.739L231.486 163.884L186.971 157.276Z" fill="#EFA92B"/>
<path d="M191.184 130.479L191.049 131.333L235.565 137.941L235.699 137.087L191.184 130.479Z" fill="#EFA92B"/>
<path d="M256.853 141.863L255.529 141.666C255.532 141.492 255.507 141.332 255.453 141.189C255.4 141.043 255.322 140.914 255.22 140.802C255.118 140.69 254.994 140.597 254.849 140.524C254.706 140.452 254.546 140.402 254.368 140.376C254.048 140.328 253.756 140.366 253.494 140.49C253.231 140.612 253.011 140.814 252.832 141.096C252.654 141.376 252.531 141.731 252.464 142.16C252.394 142.6 252.402 142.98 252.485 143.3C252.571 143.619 252.721 143.873 252.935 144.061C253.148 144.25 253.411 144.367 253.724 144.413C253.899 144.439 254.065 144.44 254.221 144.416C254.38 144.392 254.524 144.345 254.655 144.274C254.786 144.2 254.9 144.105 254.997 143.988C255.096 143.87 255.173 143.732 255.23 143.571L256.553 143.774C256.474 144.052 256.345 144.313 256.167 144.557C255.99 144.798 255.771 145.006 255.509 145.179C255.249 145.35 254.951 145.473 254.616 145.547C254.283 145.619 253.918 145.625 253.521 145.566C252.968 145.484 252.494 145.286 252.098 144.972C251.704 144.658 251.419 144.246 251.241 143.736C251.066 143.226 251.031 142.635 251.137 141.963C251.243 141.288 251.46 140.734 251.788 140.299C252.117 139.863 252.518 139.554 252.992 139.371C253.467 139.186 253.976 139.134 254.52 139.215C254.879 139.268 255.203 139.368 255.494 139.514C255.786 139.66 256.036 139.848 256.244 140.076C256.451 140.303 256.608 140.566 256.713 140.866C256.821 141.166 256.867 141.498 256.853 141.863ZM257.16 146.02L258.133 139.838L260.575 140.2C261.042 140.27 261.428 140.412 261.733 140.629C262.039 140.843 262.255 141.115 262.381 141.445C262.508 141.772 262.54 142.141 262.476 142.549C262.411 142.96 262.267 143.3 262.043 143.569C261.819 143.837 261.527 144.024 261.166 144.131C260.807 144.238 260.389 144.257 259.914 144.186L258.278 143.943L258.444 142.893L259.867 143.104C260.117 143.141 260.33 143.138 260.506 143.094C260.682 143.05 260.821 142.966 260.923 142.841C261.028 142.716 261.096 142.552 261.128 142.349C261.16 142.144 261.146 141.965 261.085 141.811C261.027 141.659 260.92 141.534 260.764 141.436C260.61 141.337 260.408 141.269 260.156 141.232L259.273 141.101L258.468 146.214L257.16 146.02ZM260.946 143.703L262.041 146.745L260.596 146.53L259.534 143.493L260.946 143.703ZM262.746 146.849L263.719 140.667L267.89 141.286L267.72 142.364L264.858 141.939L264.626 143.412L267.274 143.805L267.104 144.883L264.456 144.49L264.224 145.966L267.099 146.393L266.929 147.47L262.746 146.849ZM270.152 147.949L267.958 147.623L268.931 141.441L271.143 141.769C271.766 141.862 272.282 142.065 272.693 142.379C273.104 142.691 273.394 143.096 273.563 143.593C273.734 144.09 273.769 144.659 273.668 145.301C273.567 145.945 273.358 146.48 273.041 146.907C272.727 147.334 272.323 147.638 271.831 147.818C271.34 147.998 270.781 148.042 270.152 147.949ZM269.443 146.697L270.274 146.821C270.661 146.878 270.997 146.858 271.283 146.76C271.57 146.661 271.804 146.476 271.982 146.206C272.163 145.934 272.29 145.568 272.362 145.107C272.434 144.65 272.426 144.267 272.336 143.957C272.249 143.648 272.084 143.405 271.841 143.229C271.599 143.053 271.284 142.936 270.897 142.879L270.063 142.755L269.443 146.697ZM276.432 142.554L275.459 148.736L274.15 148.542L275.123 142.36L276.432 142.554ZM277.104 143.757L277.273 142.679L282.357 143.434L282.188 144.511L280.293 144.23L279.489 149.335L278.196 149.143L278.999 144.038L277.104 143.757ZM290.286 146.826L288.962 146.629C288.965 146.455 288.94 146.295 288.886 146.151C288.833 146.005 288.755 145.877 288.653 145.765C288.551 145.653 288.427 145.56 288.282 145.487C288.139 145.414 287.979 145.365 287.801 145.339C287.481 145.291 287.189 145.329 286.926 145.453C286.664 145.574 286.443 145.776 286.265 146.059C286.087 146.339 285.964 146.694 285.897 147.122C285.827 147.563 285.834 147.943 285.918 148.263C286.004 148.582 286.154 148.836 286.367 149.024C286.581 149.213 286.844 149.33 287.157 149.376C287.332 149.402 287.498 149.403 287.654 149.379C287.813 149.355 287.957 149.308 288.088 149.236C288.219 149.163 288.333 149.068 288.43 148.95C288.529 148.833 288.606 148.695 288.663 148.534L289.986 148.737C289.907 149.015 289.778 149.276 289.599 149.519C289.423 149.761 289.204 149.968 288.942 150.142C288.682 150.313 288.384 150.436 288.049 150.51C287.715 150.582 287.35 150.588 286.953 150.529C286.401 150.447 285.927 150.249 285.531 149.935C285.137 149.621 284.852 149.209 284.674 148.699C284.499 148.189 284.464 147.598 284.57 146.925C284.676 146.251 284.893 145.697 285.221 145.261C285.55 144.826 285.951 144.517 286.425 144.334C286.9 144.149 287.409 144.097 287.953 144.178C288.312 144.231 288.636 144.331 288.927 144.477C289.219 144.623 289.469 144.811 289.677 145.039C289.884 145.266 290.041 145.529 290.146 145.829C290.254 146.129 290.3 146.461 290.286 146.826ZM291.543 151.124L290.141 150.916L293.251 145.051L294.937 145.301L296.098 151.8L294.696 151.592L293.896 146.592L293.847 146.585L291.543 151.124ZM291.838 148.681L295.151 149.173L294.99 150.193L291.677 149.701L291.838 148.681ZM296.844 151.911L297.816 145.729L300.259 146.091C300.726 146.16 301.112 146.303 301.416 146.519C301.723 146.734 301.939 147.006 302.064 147.335C302.192 147.663 302.224 148.031 302.16 148.44C302.095 148.85 301.951 149.191 301.727 149.46C301.503 149.728 301.211 149.915 300.85 150.022C300.491 150.129 300.073 150.147 299.598 150.077L297.962 149.834L298.128 148.784L299.551 148.995C299.801 149.032 300.014 149.029 300.19 148.985C300.366 148.941 300.505 148.856 300.607 148.732C300.712 148.607 300.78 148.443 300.812 148.24C300.844 148.035 300.83 147.855 300.769 147.702C300.711 147.549 300.604 147.424 300.448 147.327C300.294 147.228 300.092 147.16 299.84 147.122L298.957 146.991L298.152 152.105L296.844 151.911ZM300.629 149.594L301.725 152.635L300.28 152.421L299.218 149.384L300.629 149.594ZM304.624 153.066L302.43 152.74L303.402 146.558L305.615 146.886C306.238 146.979 306.754 147.182 307.165 147.496C307.576 147.808 307.866 148.213 308.035 148.71C308.206 149.207 308.241 149.776 308.14 150.418C308.039 151.062 307.83 151.598 307.513 152.024C307.199 152.451 306.795 152.755 306.303 152.935C305.812 153.116 305.253 153.159 304.624 153.066ZM303.915 151.814L304.746 151.938C305.133 151.995 305.469 151.975 305.755 151.877C306.042 151.778 306.276 151.593 306.454 151.323C306.635 151.052 306.762 150.685 306.834 150.224C306.906 149.768 306.898 149.384 306.808 149.074C306.721 148.765 306.556 148.522 306.313 148.346C306.071 148.17 305.756 148.053 305.369 147.996L304.535 147.872L303.915 151.814Z" fill="#68E1FD"/>
<path opacity="0.32" d="M215.338 196.183L189.283 192.202C185.696 191.654 182.331 194.034 181.766 197.518L181.554 198.83C180.989 202.313 183.44 205.582 187.027 206.13L213.082 210.111C216.669 210.659 220.034 208.279 220.598 204.795L220.811 203.483C221.375 199.999 218.925 196.731 215.338 196.183Z" fill="#68E1FD"/>
<path opacity="0.32" d="M264.028 205.928L237.917 201.83C234.322 201.266 230.936 203.639 230.355 207.13L230.137 208.445C229.556 211.936 231.999 215.224 235.594 215.788L261.705 219.887C265.3 220.451 268.685 218.078 269.266 214.587L269.485 213.272C270.066 209.78 267.623 206.493 264.028 205.928Z" fill="#68E1FD"/>
<path opacity="0.32" d="M313.755 212.889L287.701 208.909C284.113 208.36 280.748 210.74 280.184 214.224L279.971 215.536C279.407 219.02 281.857 222.289 285.445 222.837L311.499 226.817C315.086 227.365 318.452 224.985 319.016 221.502L319.228 220.19C319.793 216.706 317.342 213.437 313.755 212.889Z" fill="#68E1FD"/>
<path opacity="0.32" d="M362.958 221.252L336.904 217.271C333.317 216.723 329.951 219.103 329.387 222.587L329.175 223.899C328.61 227.382 331.061 230.651 334.648 231.199L360.702 235.18C364.29 235.728 367.655 233.348 368.219 229.864L368.432 228.552C368.996 225.068 366.546 221.8 362.958 221.252Z" fill="#68E1FD"/>
<path d="M460.355 351.212L473.327 372.57C475.96 371.959 478.291 370.474 479.918 368.371C481.544 366.269 482.363 363.681 482.234 361.054L470.995 340.542" fill="#F1DFCE"/>
<path d="M473.327 372.57C473.327 372.57 469.581 387.961 464.401 389.762C459.222 391.563 471.688 389.189 474.123 386.824C476.558 384.459 480.174 367.922 480.174 367.922" fill="#F1DFCE"/>
<path d="M373.279 356.479L371.293 378.81C373.561 379.703 376.08 379.798 378.412 379.078C380.745 378.359 382.746 376.871 384.068 374.872L386.878 354.023" fill="#F1DFCE"/>
<path d="M371.293 378.81C371.293 378.81 357.244 391.09 352.458 389.726C347.672 388.362 361.122 390.181 364.184 389.671C367.247 389.162 382.767 380.248 382.767 380.248" fill="#F1DFCE"/>
<path d="M384.162 374.144C384.162 374.144 387.337 377.255 386.972 379.866C386.607 382.476 385.202 393.51 385.202 393.51C384.524 393.696 383.798 393.628 383.169 393.319C382.139 392.791 382.383 381.257 380.247 384.341C376.22 390.144 377.54 392.346 368.408 393.656C365.87 394.02 341.5 391.363 355.848 388.125C355.848 388.125 364.812 388.807 368.671 385.06C372.529 381.312 379.123 373.171 384.162 374.144Z" fill="#525263"/>
<path d="M394.296 77.0192C394.193 78.2017 393.2 91.9191 394.296 97.7681C395.392 103.617 399.223 111.604 404.159 110.503C409.095 109.402 411.277 107.838 411.277 110.503C411.103 113.184 410.737 115.849 410.181 118.481C410.181 118.481 416.204 122.738 421.683 121.137C427.162 119.536 428.239 115.288 428.239 115.288C428.239 115.288 425.504 112.095 426.6 103.581C427.696 95.0664 435.91 76.4552 424.408 67.4043C417.421 61.9556 395.692 60.9641 394.296 77.0192Z" fill="#F1DFCE"/>
<path d="M393.753 64.2569C393.753 64.2569 385.904 70.5698 390.943 79.8391C392.442 82.568 398.08 75.4273 405.208 77.0192C412.335 78.6111 410.687 96.1762 412.326 95.6395C413.965 95.1028 411.783 89.272 415.061 86.061C418.339 82.85 421.617 87.662 421.093 92.4285C420.568 97.195 418.283 97.7499 418.283 97.7499C418.283 97.7499 418.695 102.889 419.547 104.554C420.184 105.782 429.101 102.08 429.101 102.08C429.101 102.08 436.387 82.85 434.72 76.4734C433.053 70.0968 425.41 61.0095 417.187 61.0095C408.963 61.0095 399.223 58.3989 393.753 64.2569Z" fill="#3F3D56"/>
<path d="M365.477 153.938C365.477 153.938 362.667 143.405 359.052 141.085C355.436 138.766 354.125 137.019 353.301 137.674C352.477 138.329 353.947 140.576 353.947 140.576C353.947 140.576 356.663 143.114 354.8 143.405C352.936 143.696 339.683 135.491 335.936 135.782C332.19 136.073 334.438 141.449 333.464 143.841C332.49 146.234 341.762 152.628 345.499 154.657C349.236 156.685 354.247 160.251 356.635 161.561C359.024 162.871 365.542 157.067 365.477 153.938Z" fill="#F1DFCE"/>
<path d="M452.488 225.008L448.947 276.667L481.326 355.687C481.326 355.687 482.543 363.256 466.771 365.557L423.687 281.734L415.07 217.522" fill="#68E1FD"/>
<path opacity="0.58" d="M452.488 225.008L448.947 276.667L481.326 355.687C481.326 355.687 482.543 363.256 466.771 365.557L423.687 281.734L415.07 217.522" fill="url(#paint6_linear_3_84)"/>
<path d="M394.502 219.851L368.09 370.242C368.09 370.242 373.344 376.254 389.239 372.698L404.309 305.502L439.319 227.273C439.319 227.273 416.484 206.788 394.502 219.851Z" fill="#68E1FD"/>
<path opacity="0.58" d="M394.502 219.851L368.09 370.242C368.09 370.242 373.344 376.254 389.239 372.698L404.309 305.502L439.319 227.273C439.319 227.273 416.484 206.788 394.502 219.851Z" fill="url(#paint7_linear_3_84)"/>
<path d="M422.179 140.903C422.179 140.903 413.665 183.265 410.668 190.433C407.671 197.601 396.085 210.591 386.841 203.486C384.128 201.231 381.607 198.767 379.301 196.118L377.971 194.681C367.397 182.801 353.947 164.827 353.947 164.827C354.565 152.692 365.477 153.984 365.477 153.984L386.157 178.308C386.157 178.308 398.708 129.96 405.47 121.519C409.6 116.388 419.987 115.379 419.987 115.379C426.787 117.034 422.179 140.903 422.179 140.903Z" fill="white"/>
<path d="M433.287 118.726C442.85 130.342 451.382 213.329 453.836 218.623C453.836 218.623 437.764 225.081 413 226.564C406.19 226.89 399.37 226.175 392.788 224.444C392.788 224.444 403.831 155.539 404.177 145.806C404.524 136.073 409.085 118.462 409.085 118.462C409.085 118.462 425.701 109.512 433.287 118.726Z" fill="#F3FCFF"/>
<path d="M393.584 224.699C393.584 224.699 389.669 234.405 390.643 234.705C391.618 235.005 401.358 229.866 404.365 231.612C407.371 233.359 416.213 242.31 428.033 244.702C439.853 247.095 451.973 238.098 452.488 231.467C453.003 224.836 453.836 218.641 453.836 218.641C453.836 218.641 400.937 227.992 393.584 224.699Z" fill="#F3FCFF"/>
<path opacity="0.58" d="M412.307 155.567C412.307 155.567 403.484 196.127 401.133 200.694C398.783 205.26 395.682 205.078 395.682 205.078L395.252 208.881L402.894 206.406L412.307 155.567Z" fill="url(#paint8_linear_3_84)"/>
<path d="M428.164 67.8773C428.164 67.8773 435.217 57.753 443.15 64.5298C451.083 71.3067 442.045 82.9319 444.03 93.2745C446.016 103.617 454.164 117.198 449.753 120.891C445.341 124.584 448.657 120.891 448.657 120.891C448.657 120.891 447.083 110.803 439.609 108.811C432.135 106.819 427.508 101.025 427.284 91.3005" fill="#3F3D56"/>
<path d="M483.574 359.808C483.574 359.808 481.316 361.036 480.193 366.039C479.069 371.042 476.137 383.495 473.187 384.887C470.236 386.278 469.131 384.805 468.344 384.887C467.558 384.969 461.713 390.872 462.022 391.445C462.331 392.018 462.856 392.355 467.221 391.445C471.585 390.536 479.837 387.588 480.043 386.36C480.249 385.132 482.375 374.235 484.351 374.071C486.327 373.907 484.707 385.705 485.409 385.787C486.112 385.869 487.142 386.033 487.283 384.723C487.423 383.413 489.381 369.396 488.669 366.121C487.957 362.846 486.327 360.872 483.574 359.808Z" fill="#525263"/>
<path opacity="0.58" d="M384.162 374.144C384.162 374.144 387.337 377.255 386.972 379.866C386.607 382.476 385.202 393.51 385.202 393.51C384.524 393.696 383.798 393.628 383.169 393.319C382.139 392.791 382.383 381.257 380.247 384.341C376.22 390.144 377.54 392.346 368.408 393.656C365.87 394.02 341.5 391.363 355.848 388.125C355.848 388.125 364.812 388.807 368.671 385.06C372.529 381.312 379.123 373.171 384.162 374.144Z" fill="url(#paint9_linear_3_84)"/>
<path opacity="0.58" d="M483.574 359.808C483.574 359.808 481.316 361.036 480.193 366.039C479.069 371.042 476.137 383.495 473.187 384.887C470.236 386.278 469.131 384.805 468.344 384.887C467.558 384.969 461.713 390.872 462.022 391.445C462.331 392.018 462.856 392.355 467.221 391.445C471.585 390.536 479.837 387.588 480.043 386.36C480.249 385.132 482.375 374.235 484.351 374.071C486.327 373.907 484.707 385.705 485.409 385.787C486.112 385.869 487.142 386.033 487.283 384.723C487.423 383.413 489.381 369.396 488.669 366.121C487.957 362.846 486.327 360.872 483.574 359.808Z" fill="url(#paint10_linear_3_84)"/>
<path d="M417.637 101.689C419.219 101.689 420.503 100.442 420.503 98.9051C420.503 97.3678 419.219 96.1216 417.637 96.1216C416.054 96.1216 414.771 97.3678 414.771 98.9051C414.771 100.442 416.054 101.689 417.637 101.689Z" fill="#68E1FD"/>
<path d="M362.405 207.298L408.617 212.819L404.664 269.472L397.499 273.065L357.956 262.267L362.405 207.298Z" fill="#68E1FD"/>
<path opacity="0.58" d="M362.405 207.298L408.617 212.819L404.664 269.472L397.499 273.065L357.956 262.267L362.405 207.298Z" fill="url(#paint11_linear_3_84)"/>
<path d="M355.24 210.9L401.452 216.421L397.499 273.065L350.791 265.869L355.24 210.9Z" fill="#68E1FD"/>
<path d="M355.24 210.9L362.405 207.298L408.617 212.819L401.452 216.421L355.24 210.9Z" fill="#68E1FD"/>
<path opacity="0.58" d="M355.24 210.9L362.405 207.298L408.617 212.819L401.452 216.421L355.24 210.9Z" fill="url(#paint12_linear_3_84)"/>
<path d="M402.154 209.727C402.192 209.565 402.192 209.397 402.154 209.235C402.081 209.072 401.957 208.935 401.799 208.844C401.138 208.514 400.393 208.375 399.654 208.444C394.568 208.444 389.473 208.744 384.387 209.017C384.057 209.01 383.732 209.095 383.45 209.263C383.242 209.444 383.081 209.672 382.982 209.927C382.581 210.813 382.243 211.725 381.971 212.656C381.882 212.834 381.837 213.03 381.837 213.229C381.837 213.427 381.882 213.623 381.971 213.802C382.163 213.997 382.411 214.133 382.682 214.193C384.325 214.615 386.007 214.88 387.703 214.984L398.82 216.039C399.691 216.121 400.356 216.385 400.881 215.694C401.165 215.177 401.358 214.617 401.452 214.038C401.862 212.633 402.098 211.186 402.154 209.727V209.727Z" fill="#68E1FD"/>
<path opacity="0.58" d="M401.742 209.881C401.78 209.723 401.78 209.558 401.742 209.399C401.675 209.232 401.549 209.094 401.386 209.008C400.727 208.673 399.981 208.534 399.242 208.608C394.156 208.608 389.061 208.908 383.975 209.181C383.663 209.134 383.344 209.202 383.079 209.37C382.815 209.537 382.624 209.794 382.542 210.09C382.14 210.976 381.802 211.888 381.53 212.819C381.442 212.996 381.396 213.191 381.396 213.388C381.396 213.585 381.442 213.779 381.53 213.956C381.718 214.158 381.967 214.295 382.242 214.347C383.885 214.769 385.566 215.037 387.262 215.148L398.38 216.194C399.251 216.276 399.916 216.549 400.44 215.857C400.722 215.34 400.915 214.78 401.012 214.202C401.431 212.795 401.676 211.344 401.742 209.881V209.881Z" fill="url(#paint13_linear_3_84)"/>
<path d="M403.241 212.537C403.278 212.444 403.278 212.34 403.241 212.246C403.152 212.13 403.027 212.044 402.885 212.001C402.206 211.765 401.489 211.648 400.768 211.655C395.682 211.437 390.587 211.355 385.501 211.282C385.186 211.258 384.868 211.292 384.565 211.382C384.368 211.457 384.199 211.587 384.078 211.755C383.66 212.246 383.293 212.776 382.982 213.338C382.86 213.556 382.757 213.811 382.982 214.011C383.188 214.153 383.425 214.247 383.675 214.284C385.324 214.614 386.99 214.851 388.667 214.993L399.738 216.139C400.6 216.23 401.265 216.421 401.808 216.039C402.086 215.766 402.3 215.437 402.435 215.075C402.865 214.286 403.139 213.425 403.241 212.537V212.537Z" fill="#68E1FD"/>
<path opacity="0.58" d="M402.819 212.61C402.856 212.52 402.856 212.419 402.819 212.328C402.735 212.209 402.614 212.119 402.473 212.073C401.791 211.837 401.071 211.723 400.347 211.737C395.261 211.509 390.175 211.437 385.08 211.355C384.764 211.335 384.447 211.369 384.143 211.455C383.952 211.539 383.787 211.671 383.666 211.837C383.246 212.325 382.876 212.852 382.561 213.411C382.439 213.629 382.336 213.893 382.561 214.093C382.771 214.232 383.011 214.322 383.263 214.357C384.911 214.692 386.578 214.929 388.255 215.066L399.326 216.221C400.187 216.312 400.852 216.503 401.396 216.112C401.672 215.843 401.884 215.516 402.014 215.157C402.447 214.366 402.72 213.501 402.819 212.61V212.61Z" fill="url(#paint14_linear_3_84)"/>
<path d="M373.588 204.996C373.911 204.293 374.483 203.725 375.199 203.395C375.836 203.245 376.501 203.245 377.138 203.395C379.947 203.741 382.916 203.523 385.408 204.787C385.746 204.926 386.031 205.165 386.223 205.469C386.382 205.834 386.421 206.238 386.335 206.625C386.096 208.597 385.644 210.539 384.986 212.419C384.908 212.686 384.778 212.936 384.602 213.156C384.368 213.429 384.518 214.238 384.153 214.247C380.922 214.311 377.006 213.274 373.775 213.12C371.808 213.029 371.733 212.301 371.902 210.245C372.078 208.4 372.653 206.612 373.588 204.996V204.996Z" fill="#68E1FD"/>
<path opacity="0.58" d="M373.588 204.996C373.911 204.293 374.483 203.725 375.199 203.395C375.836 203.245 376.501 203.245 377.138 203.395C379.947 203.741 382.916 203.523 385.408 204.787C385.746 204.926 386.031 205.165 386.223 205.469C386.382 205.834 386.421 206.238 386.335 206.625C386.096 208.597 385.644 210.539 384.986 212.419C384.908 212.686 384.778 212.936 384.602 213.156C384.368 213.429 384.518 214.238 384.153 214.247C380.922 214.311 377.006 213.274 373.775 213.12C371.808 213.029 371.733 212.301 371.902 210.245C372.078 208.4 372.653 206.612 373.588 204.996V204.996Z" fill="url(#paint15_linear_3_84)"/>
<path d="M386.157 178.308C386.157 178.308 394.287 196.419 393.65 215.939L395.917 216.185C395.917 216.185 393.322 185.103 386.897 176.215C386.869 176.215 383.703 174.669 386.157 178.308Z" fill="#68E1FD"/>
<path d="M378.777 197.528C378.777 197.828 378.823 198.12 378.842 198.438C378.855 198.836 378.83 199.235 378.767 199.63C378.243 203.45 377.737 207.27 377.222 211.091L375.068 211.027C375.063 207.332 375.493 203.648 376.351 200.048C376.737 198.267 377.257 196.516 377.906 194.808C377.906 194.763 377.906 194.708 377.971 194.654L379.301 196.137C379.036 196.563 378.858 197.036 378.777 197.528V197.528Z" fill="#68E1FD"/>
<path d="M360.588 204.05C360.593 203.836 360.676 203.629 360.822 203.468C360.987 203.346 361.186 203.276 361.393 203.268C366.338 202.55 371.373 202.667 376.276 203.614L377.016 211.428C377.081 212.046 377.072 212.792 376.538 213.119C376.236 213.273 375.893 213.333 375.555 213.292C371.554 213.22 367.568 212.809 363.641 212.064C362.976 211.937 361.562 211.919 361.047 211.473C360.532 211.027 360.588 210.218 360.503 209.654C360.26 207.791 360.288 205.905 360.588 204.05V204.05Z" fill="#68E1FD"/>
<path opacity="0.58" d="M360.588 204.05C360.593 203.836 360.676 203.629 360.822 203.468C360.987 203.346 361.186 203.276 361.393 203.268C366.338 202.55 371.373 202.667 376.276 203.614L377.016 211.428C377.081 212.046 377.072 212.792 376.538 213.119C376.236 213.273 375.893 213.333 375.555 213.292C371.554 213.22 367.568 212.809 363.641 212.064C362.976 211.937 361.562 211.919 361.047 211.473C360.532 211.027 360.588 210.218 360.503 209.654C360.26 207.791 360.288 205.905 360.588 204.05V204.05Z" fill="url(#paint16_linear_3_84)"/>
<path opacity="0.58" d="M350.791 265.869L378.468 270.427L365.617 212.419L355.24 210.9L350.791 265.869Z" fill="url(#paint17_linear_3_84)"/>
<path d="M213.737 233.841C213.76 233.54 213.874 233.252 214.065 233.013C214.277 232.823 214.54 232.693 214.823 232.64C215.644 232.388 216.528 232.41 217.334 232.704C217.737 232.86 218.078 233.14 218.302 233.502C218.527 233.863 218.624 234.285 218.579 234.705C219.059 233.837 219.644 233.028 220.321 232.295C220.621 231.967 221.024 231.631 221.455 231.731C221.65 231.791 221.825 231.901 221.96 232.049C222.45 232.516 222.816 233.09 223.028 233.724C223.24 234.357 223.292 235.031 223.178 235.688C223.353 234.569 223.927 233.546 224.798 232.795C224.927 232.671 225.089 232.586 225.267 232.549C225.604 232.549 225.875 232.822 226.053 233.104C226.877 234.477 227.182 236.085 226.915 237.652C226.945 236.732 227.188 235.831 227.627 235.015C227.721 234.833 227.861 234.642 228.067 234.632C228.212 234.649 228.345 234.717 228.442 234.824C228.913 235.262 229.251 235.819 229.416 236.432C229.581 237.046 229.568 237.692 229.378 238.298C228.844 239.972 227.056 240.973 225.313 241.391C224.442 241.591 223.549 241.691 222.654 241.691C220.699 241.611 218.763 241.287 216.893 240.727C216.293 240.618 215.722 240.388 215.217 240.054C213.241 238.498 213.39 235.997 213.737 233.841Z" fill="#BB826C"/>
<defs>
<linearGradient id="paint0_linear_3_84" x1="123.214" y1="145.024" x2="170.569" y2="145.024" gradientUnits="userSpaceOnUse">
<stop offset="0.01"/>
<stop offset="0.13" stop-opacity="0.69"/>
<stop offset="1" stop-opacity="0"/>
</linearGradient>
<linearGradient id="paint1_linear_3_84" x1="188.542" y1="243.547" x2="123.571" y2="390.91" gradientUnits="userSpaceOnUse">
<stop offset="0.01"/>
<stop offset="0.13" stop-opacity="0.69"/>
<stop offset="1" stop-opacity="0"/>
</linearGradient>
<linearGradient id="paint2_linear_3_84" x1="141.356" y1="332.164" x2="103.475" y2="491.09" gradientUnits="userSpaceOnUse">
<stop offset="0.01"/>
<stop offset="0.13" stop-opacity="0.69"/>
<stop offset="1" stop-opacity="0"/>
</linearGradient>
<linearGradient id="paint3_linear_3_84" x1="203.903" y1="347.073" x2="166.013" y2="505.999" gradientUnits="userSpaceOnUse">
<stop offset="0.01"/>
<stop offset="0.13" stop-opacity="0.69"/>
<stop offset="1" stop-opacity="0"/>
</linearGradient>
<linearGradient id="paint4_linear_3_84" x1="263.669" y1="295.919" x2="311.488" y2="-31.2104" gradientUnits="userSpaceOnUse">
<stop offset="0.01"/>
<stop offset="0.13" stop-opacity="0.69"/>
<stop offset="1" stop-opacity="0"/>
</linearGradient>
<linearGradient id="paint5_linear_3_84" x1="257.008" y1="356.963" x2="294.703" y2="60.7575" gradientUnits="userSpaceOnUse">
<stop offset="0.01"/>
<stop offset="0.13" stop-opacity="0.69"/>
<stop offset="1" stop-opacity="0"/>
</linearGradient>
<linearGradient id="paint6_linear_3_84" x1="394.971" y1="254.481" x2="538.471" y2="350.486" gradientUnits="userSpaceOnUse">
<stop offset="0.01"/>
<stop offset="0.13" stop-opacity="0.69"/>
<stop offset="1" stop-opacity="0"/>
</linearGradient>
<linearGradient id="paint7_linear_3_84" x1="349.395" y1="247.522" x2="475.461" y2="373.614" gradientUnits="userSpaceOnUse">
<stop offset="0.01"/>
<stop offset="0.13" stop-opacity="0.69"/>
<stop offset="1" stop-opacity="0"/>
</linearGradient>
<linearGradient id="paint8_linear_3_84" x1="395.252" y1="182.201" x2="412.307" y2="182.201" gradientUnits="userSpaceOnUse">
<stop offset="0.01"/>
<stop offset="0.13" stop-opacity="0.69"/>
<stop offset="1" stop-opacity="0"/>
</linearGradient>
<linearGradient id="paint9_linear_3_84" x1="381.633" y1="318.183" x2="345.208" y2="530.975" gradientUnits="userSpaceOnUse">
<stop offset="0.01"/>
<stop offset="0.13" stop-opacity="0.69"/>
<stop offset="1" stop-opacity="0"/>
</linearGradient>
<linearGradient id="paint10_linear_3_84" x1="484.136" y1="335.73" x2="447.711" y2="548.522" gradientUnits="userSpaceOnUse">
<stop offset="0.01"/>
<stop offset="0.13" stop-opacity="0.69"/>
<stop offset="1" stop-opacity="0"/>
</linearGradient>
<linearGradient id="paint11_linear_3_84" x1="366.919" y1="243.338" x2="428.164" y2="227.616" gradientUnits="userSpaceOnUse">
<stop offset="0.01"/>
<stop offset="0.13" stop-opacity="0.69"/>
<stop offset="1" stop-opacity="0"/>
</linearGradient>
<linearGradient id="paint12_linear_3_84" x1="382.102" y1="200.603" x2="381.395" y2="249.569" gradientUnits="userSpaceOnUse">
<stop offset="0.01"/>
<stop offset="0.13" stop-opacity="0.69"/>
<stop offset="1" stop-opacity="0"/>
</linearGradient>
<linearGradient id="paint13_linear_3_84" x1="385.942" y1="218.041" x2="402.839" y2="201.383" gradientUnits="userSpaceOnUse">
<stop offset="0.01"/>
<stop offset="0.13" stop-opacity="0.69"/>
<stop offset="1" stop-opacity="0"/>
</linearGradient>
<linearGradient id="paint14_linear_3_84" x1="386.96" y1="218.636" x2="403.326" y2="204.001" gradientUnits="userSpaceOnUse">
<stop offset="0.01"/>
<stop offset="0.13" stop-opacity="0.69"/>
<stop offset="1" stop-opacity="0"/>
</linearGradient>
<linearGradient id="paint15_linear_3_84" x1="375.461" y1="211.364" x2="385.85" y2="204.669" gradientUnits="userSpaceOnUse">
<stop offset="0.01"/>
<stop offset="0.13" stop-opacity="0.69"/>
<stop offset="1" stop-opacity="0"/>
</linearGradient>
<linearGradient id="paint16_linear_3_84" x1="367.481" y1="216.922" x2="370.161" y2="198.061" gradientUnits="userSpaceOnUse">
<stop offset="0.01"/>
<stop offset="0.13" stop-opacity="0.69"/>
<stop offset="1" stop-opacity="0"/>
</linearGradient>
<linearGradient id="paint17_linear_3_84" x1="319.892" y1="262.986" x2="411.745" y2="216.704" gradientUnits="userSpaceOnUse">
<stop offset="0.01"/>
<stop offset="0.13" stop-opacity="0.69"/>
<stop offset="1" stop-opacity="0"/>
</linearGradient>
</defs>
</svg>
