<svg width="685" height="528" viewBox="0 0 685 528" fill="none" xmlns="http://www.w3.org/2000/svg">
<path d="M281.586 420.117L274.582 417.753C273.125 417.267 271.85 416.334 270.931 415.081C270.012 413.827 269.493 412.314 269.445 410.747L260.471 118.461C260.422 116.9 260.843 115.361 261.676 114.052C262.509 112.743 263.714 111.727 265.129 111.14L272.938 107.935L281.586 420.117Z" fill="#68E1FD"/>
<path d="M281.586 421.869C281.411 421.902 281.231 421.902 281.055 421.869L274.034 419.504C272.255 418.896 270.7 417.746 269.577 416.21C268.454 414.673 267.816 412.822 267.749 410.905L258.759 118.514C258.7 116.595 259.219 114.705 260.245 113.098C261.271 111.491 262.755 110.245 264.496 109.529L272.288 106.376C272.545 106.268 272.825 106.226 273.103 106.253C273.38 106.281 273.647 106.377 273.88 106.534C274.111 106.689 274.302 106.9 274.436 107.147C274.57 107.394 274.644 107.67 274.651 107.953L283.299 420.152C283.299 420.617 283.118 421.062 282.797 421.391C282.476 421.719 282.041 421.904 281.586 421.904V421.869ZM271.311 110.492L265.78 112.769C264.693 113.225 263.768 114.009 263.129 115.017C262.489 116.024 262.165 117.208 262.201 118.408L271.192 410.695C271.234 411.897 271.634 413.057 272.338 414.02C273.042 414.984 274.016 415.706 275.13 416.089L279.822 417.683L271.311 110.492Z" fill="#093F68"/>
<path d="M445.986 420.117L452.99 417.753C454.447 417.267 455.722 416.334 456.642 415.081C457.561 413.827 458.08 412.314 458.128 410.747L467.101 118.461C467.145 116.892 466.714 115.347 465.869 114.037C465.023 112.727 463.803 111.716 462.375 111.14L454.566 107.935L445.986 420.117Z" fill="#68E1FD"/>
<path d="M445.986 421.869C445.532 421.869 445.097 421.684 444.776 421.356C444.454 421.027 444.274 420.582 444.274 420.117L452.922 107.918C452.929 107.635 453.003 107.359 453.137 107.112C453.271 106.865 453.462 106.654 453.693 106.499C453.926 106.342 454.192 106.246 454.47 106.218C454.747 106.191 455.027 106.233 455.285 106.341L463.077 109.564C464.818 110.28 466.302 111.526 467.328 113.133C468.354 114.74 468.873 116.63 468.814 118.549L459.823 410.853C459.756 412.77 459.119 414.621 457.996 416.157C456.873 417.694 455.318 418.843 453.539 419.452L446.517 421.816C446.345 421.867 446.165 421.885 445.986 421.869V421.869ZM456.261 110.492L447.699 417.683L452.391 416.089C453.506 415.706 454.48 414.984 455.183 414.02C455.887 413.057 456.287 411.897 456.33 410.695L465.321 118.408C465.356 117.208 465.032 116.024 464.393 115.017C463.753 114.009 462.828 113.225 461.741 112.769L456.261 110.492Z" fill="#093F68"/>
<path d="M445.986 420.117C445.986 420.117 443.246 433.428 363.786 433.428C284.326 433.428 281.586 420.117 281.586 420.117L272.938 107.935C272.938 107.935 283.83 94.5722 363.786 94.5722C443.743 94.5722 454.635 107.935 454.635 107.935L445.986 420.117Z" fill="#68E1FD"/>
<path d="M363.786 435.179C286.844 435.179 280.422 422.92 279.874 420.485C279.865 420.38 279.865 420.275 279.874 420.17L271.226 107.988C271.213 107.561 271.353 107.143 271.62 106.814C272.082 106.236 283.95 92.8033 363.786 92.8033C443.623 92.8033 455.491 106.219 455.953 106.814C456.22 107.143 456.36 107.561 456.347 107.988L447.699 420.17C447.707 420.275 447.707 420.38 447.699 420.485C447.151 422.937 440.729 435.179 363.786 435.179ZM283.299 419.802C283.813 420.608 291.861 431.676 363.786 431.676C434.444 431.676 443.469 420.993 444.274 419.732L452.836 108.688C450.165 106.622 433.365 96.3236 363.786 96.3236C323.611 96.3236 301.434 99.8264 289.909 102.664C279.857 105.186 275.884 107.743 274.668 108.688L283.299 419.802Z" fill="#093F68"/>
<path d="M424.7 132.367H302.89C298.709 132.367 295.321 135.833 295.321 140.108V228.254C295.321 232.53 298.709 235.996 302.89 235.996H424.7C428.88 235.996 432.269 232.53 432.269 228.254V140.108C432.269 135.833 428.88 132.367 424.7 132.367Z" fill="white"/>
<path d="M424.7 237.729H302.873C300.414 237.725 298.058 236.723 296.321 234.943C294.584 233.163 293.608 230.752 293.608 228.237V140.09C293.613 137.579 294.59 135.172 296.327 133.396C298.063 131.62 300.417 130.62 302.873 130.615H424.7C427.156 130.62 429.51 131.62 431.246 133.396C432.983 135.172 433.96 137.579 433.965 140.09V228.254C433.96 230.766 432.983 233.173 431.246 234.949C429.51 236.725 427.156 237.725 424.7 237.729V237.729ZM302.873 134.118C301.324 134.118 299.839 134.747 298.744 135.867C297.648 136.987 297.033 138.506 297.033 140.09V228.254C297.033 229.84 297.648 231.361 298.742 232.484C299.837 233.606 301.322 234.24 302.873 234.244H424.7C426.25 234.24 427.736 233.606 428.83 232.484C429.925 231.361 430.54 229.84 430.54 228.254V140.09C430.54 138.506 429.924 136.987 428.829 135.867C427.734 134.747 426.249 134.118 424.7 134.118H302.873Z" fill="#093F68"/>
<path d="M327.841 308.625H297.907C295.4 308.625 293.368 310.703 293.368 313.266V323.056C293.368 325.62 295.4 327.697 297.907 327.697H327.841C330.347 327.697 332.379 325.62 332.379 323.056V313.266C332.379 310.703 330.347 308.625 327.841 308.625Z" fill="#093F68"/>
<path d="M327.824 329.449H297.975C296.317 329.449 294.727 328.775 293.555 327.576C292.383 326.378 291.724 324.752 291.724 323.056V313.266C291.724 311.571 292.383 309.945 293.555 308.746C294.727 307.547 296.317 306.874 297.975 306.874H327.892C329.549 306.878 331.136 307.553 332.307 308.751C333.479 309.949 334.139 311.572 334.143 313.266V323.056C334.141 323.901 333.975 324.737 333.656 325.516C333.337 326.295 332.87 327.002 332.283 327.596C331.696 328.19 331 328.66 330.234 328.978C329.469 329.296 328.65 329.456 327.824 329.449V329.449ZM297.975 310.376C297.226 310.376 296.507 310.681 295.977 311.223C295.447 311.765 295.149 312.5 295.149 313.266V323.056C295.149 323.823 295.447 324.558 295.977 325.1C296.507 325.642 297.226 325.946 297.975 325.946H327.892C328.642 325.946 329.361 325.642 329.89 325.1C330.42 324.558 330.718 323.823 330.718 323.056V313.266C330.718 312.5 330.42 311.765 329.89 311.223C329.361 310.681 328.642 310.376 327.892 310.376H297.975Z" fill="#093F68"/>
<path d="M379.833 308.625H349.898C347.392 308.625 345.36 310.703 345.36 313.266V323.056C345.36 325.62 347.392 327.697 349.898 327.697H379.833C382.339 327.697 384.371 325.62 384.371 323.056V313.266C384.371 310.703 382.339 308.625 379.833 308.625Z" fill="#093F68"/>
<path d="M379.832 329.449H349.915C348.256 329.449 346.664 328.776 345.489 327.578C344.314 326.379 343.652 324.753 343.647 323.056V313.266C343.652 311.569 344.314 309.943 345.489 308.745C346.664 307.547 348.256 306.874 349.915 306.874H379.832C381.489 306.878 383.076 307.553 384.247 308.751C385.419 309.949 386.079 311.572 386.083 313.266V323.056C386.079 324.75 385.419 326.374 384.247 327.571C383.076 328.769 381.489 329.444 379.832 329.449V329.449ZM349.915 310.376C349.164 310.376 348.444 310.68 347.911 311.222C347.378 311.763 347.077 312.498 347.072 313.266V323.056C347.077 323.824 347.378 324.559 347.911 325.101C348.444 325.642 349.164 325.946 349.915 325.946H379.832C380.204 325.946 380.571 325.871 380.914 325.726C381.257 325.581 381.568 325.368 381.83 325.1C382.093 324.831 382.301 324.513 382.443 324.162C382.585 323.812 382.658 323.436 382.658 323.056V313.266C382.658 312.887 382.585 312.511 382.443 312.16C382.301 311.81 382.093 311.491 381.83 311.223C381.568 310.954 381.257 310.742 380.914 310.596C380.571 310.451 380.204 310.376 379.832 310.376H349.915Z" fill="#093F68"/>
<path d="M431.841 308.625H401.907C399.4 308.625 397.368 310.703 397.368 313.266V323.056C397.368 325.62 399.4 327.697 401.907 327.697H431.841C434.347 327.697 436.379 325.62 436.379 323.056V313.266C436.379 310.703 434.347 308.625 431.841 308.625Z" fill="#093F68"/>
<path d="M431.841 329.449H401.924C400.264 329.449 398.673 328.776 397.498 327.578C396.323 326.379 395.661 324.753 395.656 323.056V313.266C395.661 311.569 396.323 309.943 397.498 308.745C398.673 307.547 400.264 306.874 401.924 306.874H431.841C433.498 306.878 435.085 307.553 436.256 308.751C437.427 309.949 438.087 311.572 438.092 313.266V323.056C438.087 324.75 437.427 326.374 436.256 327.571C435.085 328.769 433.498 329.444 431.841 329.449V329.449ZM401.924 310.376C401.173 310.376 400.452 310.68 399.92 311.222C399.387 311.763 399.086 312.498 399.081 313.266V323.056C399.086 323.824 399.387 324.559 399.92 325.101C400.452 325.642 401.173 325.946 401.924 325.946H431.841C432.591 325.946 433.309 325.642 433.839 325.1C434.369 324.558 434.667 323.823 434.667 323.056V313.266C434.667 312.5 434.369 311.765 433.839 311.223C433.309 310.681 432.591 310.376 431.841 310.376H401.924Z" fill="#093F68"/>
<path d="M326.848 258.115H298.9C295.845 258.115 293.368 260.648 293.368 263.772V280.796C293.368 283.92 295.845 286.453 298.9 286.453H326.848C329.903 286.453 332.379 283.92 332.379 280.796V263.772C332.379 260.648 329.903 258.115 326.848 258.115Z" fill="#093F68"/>
<path d="M326.831 288.186H298.9C296.98 288.182 295.14 287.4 293.783 286.012C292.425 284.623 291.66 282.742 291.656 280.778V263.772C291.66 261.809 292.425 259.927 293.783 258.539C295.14 257.151 296.98 256.369 298.9 256.364H326.831C328.75 256.369 330.59 257.151 331.948 258.539C333.305 259.927 334.07 261.809 334.075 263.772V280.778C334.07 282.742 333.305 284.623 331.948 286.012C330.59 287.4 328.75 288.182 326.831 288.186V288.186ZM298.9 259.867C297.887 259.867 296.916 260.278 296.199 261.011C295.483 261.743 295.081 262.736 295.081 263.772V280.778C295.081 281.814 295.483 282.807 296.199 283.54C296.916 284.272 297.887 284.684 298.9 284.684H326.831C327.843 284.684 328.815 284.272 329.531 283.54C330.247 282.807 330.65 281.814 330.65 280.778V263.772C330.65 262.736 330.247 261.743 329.531 261.011C328.815 260.278 327.843 259.867 326.831 259.867H298.9Z" fill="#093F68"/>
<path d="M378.839 258.115H350.891C347.836 258.115 345.36 260.648 345.36 263.772V280.796C345.36 283.92 347.836 286.453 350.891 286.453H378.839C381.894 286.453 384.371 283.92 384.371 280.796V263.772C384.371 260.648 381.894 258.115 378.839 258.115Z" fill="#093F68"/>
<path d="M378.839 288.186H350.908C348.986 288.186 347.141 287.407 345.78 286.018C344.419 284.629 343.652 282.745 343.647 280.778V263.772C343.652 261.806 344.419 259.922 345.78 258.533C347.141 257.144 348.986 256.364 350.908 256.364H378.839C380.759 256.369 382.599 257.151 383.956 258.539C385.314 259.927 386.079 261.809 386.083 263.772V280.778C386.079 282.742 385.314 284.623 383.956 286.012C382.599 287.4 380.759 288.182 378.839 288.186V288.186ZM350.908 259.867C349.894 259.867 348.921 260.278 348.202 261.01C347.483 261.742 347.077 262.735 347.072 263.772V280.778C347.077 281.816 347.483 282.809 348.202 283.541C348.921 284.273 349.894 284.684 350.908 284.684H378.839C379.852 284.684 380.823 284.272 381.54 283.54C382.256 282.807 382.658 281.814 382.658 280.778V263.772C382.658 262.736 382.256 261.743 381.54 261.011C380.823 260.278 379.852 259.867 378.839 259.867H350.908Z" fill="#093F68"/>
<path d="M430.848 258.115H402.9C399.845 258.115 397.368 260.648 397.368 263.772V280.796C397.368 283.92 399.845 286.453 402.9 286.453H430.848C433.903 286.453 436.379 283.92 436.379 280.796V263.772C436.379 260.648 433.903 258.115 430.848 258.115Z" fill="#093F68"/>
<path d="M430.848 288.186H402.917C400.994 288.186 399.15 287.407 397.789 286.018C396.428 284.629 395.661 282.745 395.656 280.778V263.772C395.661 261.806 396.428 259.922 397.789 258.533C399.15 257.144 400.994 256.364 402.917 256.364H430.848C432.768 256.369 434.608 257.151 435.965 258.539C437.323 259.927 438.087 261.809 438.092 263.772V280.778C438.087 282.742 437.323 284.623 435.965 286.012C434.608 287.4 432.768 288.182 430.848 288.186V288.186ZM402.917 259.867C401.903 259.867 400.929 260.278 400.211 261.01C399.492 261.742 399.086 262.735 399.081 263.772V280.778C399.086 281.816 399.492 282.809 400.211 283.541C400.929 284.273 401.903 284.684 402.917 284.684H430.848C431.861 284.684 432.832 284.272 433.548 283.54C434.264 282.807 434.667 281.814 434.667 280.778V263.772C434.667 262.736 434.264 261.743 433.548 261.011C432.832 260.278 431.861 259.867 430.848 259.867H402.917Z" fill="#093F68"/>
<path d="M327.841 341.568H297.907C295.4 341.568 293.368 343.646 293.368 346.209V356C293.368 358.563 295.4 360.641 297.907 360.641H327.841C330.347 360.641 332.379 358.563 332.379 356V346.209C332.379 343.646 330.347 341.568 327.841 341.568Z" fill="#093F68"/>
<path d="M327.824 362.41H297.975C297.153 362.41 296.339 362.244 295.579 361.921C294.82 361.599 294.13 361.127 293.549 360.531C292.968 359.936 292.508 359.229 292.195 358.451C291.882 357.674 291.722 356.841 291.724 356V346.315C291.722 345.474 291.882 344.64 292.195 343.863C292.508 343.085 292.968 342.378 293.549 341.783C294.13 341.188 294.82 340.715 295.579 340.393C296.339 340.07 297.153 339.904 297.975 339.904H327.892C329.552 339.909 331.142 340.586 332.313 341.788C333.485 342.99 334.143 344.617 334.143 346.315V356.087C334.12 357.781 333.443 359.397 332.259 360.582C331.075 361.767 329.48 362.424 327.824 362.41V362.41ZM297.975 343.32C297.603 343.32 297.234 343.395 296.89 343.541C296.546 343.688 296.234 343.902 295.971 344.172C295.708 344.442 295.501 344.763 295.36 345.116C295.219 345.468 295.147 345.846 295.149 346.227V356C295.149 356.768 295.447 357.504 295.976 358.049C296.505 358.594 297.224 358.902 297.975 358.907H327.892C328.643 358.902 329.362 358.594 329.891 358.049C330.421 357.504 330.718 356.768 330.718 356V346.315C330.72 345.934 330.649 345.556 330.508 345.203C330.367 344.851 330.159 344.53 329.896 344.26C329.634 343.99 329.322 343.775 328.978 343.629C328.634 343.483 328.265 343.407 327.892 343.407L297.975 343.32Z" fill="#093F68"/>
<path d="M379.833 341.568H349.898C347.392 341.568 345.36 343.646 345.36 346.209V356C345.36 358.563 347.392 360.641 349.898 360.641H379.833C382.339 360.641 384.371 358.563 384.371 356V346.209C384.371 343.646 382.339 341.568 379.833 341.568Z" fill="#093F68"/>
<path d="M379.832 362.41H349.915C348.253 362.41 346.659 361.734 345.483 360.532C344.308 359.33 343.647 357.7 343.647 356V346.315C343.647 344.614 344.308 342.984 345.483 341.782C346.659 340.58 348.253 339.904 349.915 339.904H379.832C381.492 339.909 383.082 340.586 384.253 341.788C385.425 342.99 386.083 344.617 386.083 346.315V356.087C386.061 357.769 385.393 359.374 384.223 360.557C383.054 361.74 381.477 362.405 379.832 362.41V362.41ZM349.915 343.32C349.161 343.32 348.438 343.626 347.905 344.171C347.372 344.716 347.072 345.456 347.072 346.227V356C347.077 356.769 347.378 357.506 347.91 358.05C348.442 358.595 349.163 358.902 349.915 358.907H379.832C380.583 358.902 381.302 358.594 381.832 358.049C382.361 357.504 382.658 356.768 382.658 356V346.315C382.66 345.934 382.589 345.556 382.448 345.203C382.307 344.851 382.099 344.53 381.837 344.26C381.574 343.99 381.262 343.775 380.918 343.629C380.574 343.483 380.205 343.407 379.832 343.407L349.915 343.32Z" fill="#093F68"/>
<path d="M431.841 341.568H401.907C399.4 341.568 397.368 343.646 397.368 346.209V356C397.368 358.563 399.4 360.641 401.907 360.641H431.841C434.347 360.641 436.379 358.563 436.379 356V346.209C436.379 343.646 434.347 341.568 431.841 341.568Z" fill="#093F68"/>
<path d="M431.841 362.41H401.924C400.261 362.41 398.667 361.734 397.492 360.532C396.316 359.33 395.656 357.7 395.656 356V346.315C395.656 344.614 396.316 342.984 397.492 341.782C398.667 340.58 400.261 339.904 401.924 339.904H431.841C433.5 339.909 435.09 340.586 436.262 341.788C437.434 342.99 438.092 344.617 438.092 346.315V356.087C438.069 357.769 437.401 359.374 436.232 360.557C435.063 361.74 433.486 362.405 431.841 362.41V362.41ZM401.924 343.32C401.537 343.31 401.153 343.381 400.795 343.528C400.436 343.675 400.11 343.896 399.838 344.176C399.565 344.457 399.352 344.791 399.21 345.158C399.068 345.526 399.001 345.919 399.013 346.315V356.087C399.017 356.857 399.318 357.594 399.85 358.138C400.382 358.682 401.103 358.99 401.855 358.994H431.773C432.524 358.99 433.242 358.681 433.772 358.137C434.301 357.592 434.598 356.855 434.598 356.087V346.315C434.601 345.934 434.529 345.556 434.388 345.203C434.247 344.851 434.039 344.53 433.777 344.26C433.514 343.99 433.202 343.775 432.858 343.629C432.514 343.483 432.145 343.407 431.773 343.407L401.924 343.32Z" fill="#093F68"/>
<path d="M327.841 374.529H297.907C295.4 374.529 293.368 376.607 293.368 379.17V388.96C293.368 391.524 295.4 393.602 297.907 393.602H327.841C330.347 393.602 332.379 391.524 332.379 388.96V379.17C332.379 376.607 330.347 374.529 327.841 374.529Z" fill="#093F68"/>
<path d="M327.824 395.353H297.975C296.317 395.353 294.727 394.679 293.555 393.481C292.383 392.282 291.724 390.656 291.724 388.96V379.17C291.724 377.475 292.383 375.849 293.555 374.65C294.727 373.451 296.317 372.778 297.975 372.778H327.892C329.549 372.782 331.136 373.457 332.307 374.655C333.479 375.853 334.139 377.476 334.143 379.17V388.96C334.141 389.805 333.975 390.641 333.656 391.42C333.337 392.199 332.87 392.906 332.283 393.5C331.696 394.094 331 394.564 330.234 394.882C329.469 395.2 328.65 395.36 327.824 395.353V395.353ZM297.975 376.28C297.226 376.28 296.507 376.585 295.977 377.127C295.447 377.669 295.149 378.404 295.149 379.17V388.96C295.149 389.727 295.447 390.462 295.977 391.004C296.507 391.546 297.226 391.85 297.975 391.85H327.892C328.642 391.85 329.361 391.546 329.89 391.004C330.42 390.462 330.718 389.727 330.718 388.96V379.17C330.718 378.404 330.42 377.669 329.89 377.127C329.361 376.585 328.642 376.28 327.892 376.28H297.975Z" fill="#093F68"/>
<path d="M379.833 374.529H349.898C347.392 374.529 345.36 376.607 345.36 379.17V388.96C345.36 391.524 347.392 393.602 349.898 393.602H379.833C382.339 393.602 384.371 391.524 384.371 388.96V379.17C384.371 376.607 382.339 374.529 379.833 374.529Z" fill="#093F68"/>
<path d="M379.832 395.353H349.915C348.256 395.353 346.664 394.68 345.489 393.482C344.314 392.283 343.652 390.657 343.647 388.96V379.17C343.652 377.473 344.314 375.847 345.489 374.649C346.664 373.451 348.256 372.778 349.915 372.778H379.832C381.489 372.782 383.076 373.457 384.247 374.655C385.419 375.853 386.079 377.476 386.083 379.17V388.96C386.079 390.654 385.419 392.278 384.247 393.475C383.076 394.673 381.489 395.348 379.832 395.353V395.353ZM349.915 376.28C349.164 376.28 348.444 376.584 347.911 377.126C347.378 377.667 347.077 378.402 347.072 379.17V388.96C347.077 389.728 347.378 390.463 347.911 391.005C348.444 391.546 349.164 391.85 349.915 391.85H379.832C380.204 391.85 380.571 391.775 380.914 391.63C381.257 391.485 381.568 391.272 381.83 391.004C382.093 390.735 382.301 390.417 382.443 390.066C382.585 389.716 382.658 389.34 382.658 388.96V379.17C382.658 378.404 382.36 377.669 381.83 377.127C381.301 376.585 380.582 376.28 379.832 376.28H349.915Z" fill="#093F68"/>
<path d="M431.841 374.529H401.907C399.4 374.529 397.368 376.607 397.368 379.17V388.96C397.368 391.524 399.4 393.602 401.907 393.602H431.841C434.347 393.602 436.379 391.524 436.379 388.96V379.17C436.379 376.607 434.347 374.529 431.841 374.529Z" fill="#093F68"/>
<path d="M431.841 395.353H401.924C400.264 395.353 398.673 394.68 397.498 393.482C396.323 392.283 395.661 390.657 395.656 388.96V379.17C395.661 377.473 396.323 375.847 397.498 374.649C398.673 373.451 400.264 372.778 401.924 372.778H431.841C433.498 372.782 435.085 373.457 436.256 374.655C437.427 375.853 438.087 377.476 438.092 379.17V388.96C438.087 390.654 437.427 392.278 436.256 393.475C435.085 394.673 433.498 395.348 431.841 395.353V395.353ZM401.924 376.28C401.173 376.28 400.452 376.584 399.92 377.126C399.387 377.667 399.086 378.402 399.081 379.17V388.96C399.086 389.728 399.387 390.463 399.92 391.005C400.452 391.546 401.173 391.85 401.924 391.85H431.841C432.591 391.85 433.309 391.546 433.839 391.004C434.369 390.462 434.667 389.727 434.667 388.96V379.17C434.667 378.404 434.369 377.669 433.839 377.127C433.309 376.585 432.591 376.28 431.841 376.28H401.924Z" fill="#093F68"/>
<path d="M400.245 162.228H215.963C208.681 162.228 202.777 168.265 202.777 175.713V286.593C202.777 294.041 208.681 300.078 215.963 300.078H400.245C407.528 300.078 413.432 294.041 413.432 286.593V175.713C413.432 168.265 407.528 162.228 400.245 162.228Z" fill="#FFBC0E"/>
<path d="M400.245 301.83H215.963C212.013 301.825 208.226 300.218 205.433 297.362C202.64 294.505 201.069 290.632 201.065 286.593V175.696C201.069 171.658 202.641 167.787 205.434 164.933C208.228 162.079 212.015 160.476 215.963 160.476H400.245C404.193 160.481 407.977 162.085 410.769 164.938C413.562 167.791 415.135 171.659 415.144 175.696V286.593C415.14 290.632 413.569 294.505 410.775 297.362C407.982 300.218 404.195 301.825 400.245 301.83ZM215.963 163.979C212.923 163.979 210.008 165.213 207.856 167.41C205.705 169.607 204.494 172.587 204.49 175.696V286.593C204.494 289.703 205.704 292.685 207.855 294.885C210.006 297.085 212.922 298.322 215.963 298.327H400.245C403.287 298.322 406.203 297.085 408.354 294.885C410.504 292.685 411.715 289.703 411.719 286.593V175.696C411.715 172.587 410.504 169.607 408.353 167.41C406.201 165.213 403.286 163.979 400.245 163.979H215.963Z" fill="#093F68"/>
<path d="M349.145 222.703C357.326 222.703 363.958 215.92 363.958 207.553C363.958 199.187 357.326 192.404 349.145 192.404C340.963 192.404 334.331 199.187 334.331 207.553C334.331 215.92 340.963 222.703 349.145 222.703Z" fill="#68E1FD"/>
<path d="M349.145 224.454C345.876 224.454 342.681 223.463 339.963 221.606C337.246 219.749 335.128 217.109 333.877 214.021C332.626 210.933 332.299 207.535 332.936 204.256C333.574 200.978 335.148 197.966 337.459 195.603C339.77 193.239 342.715 191.629 345.921 190.977C349.126 190.325 352.449 190.66 355.469 191.939C358.488 193.218 361.069 195.384 362.885 198.164C364.701 200.943 365.67 204.211 365.67 207.553C365.666 212.034 363.923 216.33 360.825 219.499C357.727 222.667 353.526 224.449 349.145 224.454V224.454ZM349.145 194.155C346.553 194.155 344.021 194.941 341.866 196.413C339.712 197.885 338.033 199.978 337.041 202.426C336.05 204.874 335.79 207.568 336.296 210.167C336.801 212.766 338.049 215.153 339.881 217.027C341.713 218.901 344.047 220.177 346.589 220.694C349.13 221.211 351.764 220.945 354.158 219.931C356.552 218.917 358.598 217.2 360.037 214.997C361.477 212.794 362.245 210.203 362.245 207.553C362.241 204.001 360.859 200.596 358.403 198.085C355.947 195.573 352.618 194.16 349.145 194.155V194.155Z" fill="#093F68"/>
<path d="M372.28 222.703C380.461 222.703 387.094 215.92 387.094 207.553C387.094 199.187 380.461 192.404 372.28 192.404C364.099 192.404 357.467 199.187 357.467 207.553C357.467 215.92 364.099 222.703 372.28 222.703Z" fill="#F56132"/>
<path d="M372.28 224.454C369.012 224.454 365.817 223.463 363.099 221.606C360.382 219.749 358.264 217.109 357.013 214.021C355.762 210.933 355.435 207.535 356.072 204.256C356.71 200.978 358.284 197.966 360.595 195.603C362.906 193.239 365.851 191.629 369.056 190.977C372.262 190.325 375.585 190.66 378.604 191.939C381.624 193.218 384.205 195.384 386.021 198.164C387.837 200.943 388.806 204.211 388.806 207.553C388.801 212.034 387.059 216.33 383.961 219.499C380.863 222.667 376.662 224.449 372.28 224.454V224.454ZM372.28 194.155C369.689 194.155 367.156 194.941 365.002 196.413C362.848 197.885 361.169 199.978 360.177 202.426C359.185 204.874 358.926 207.568 359.432 210.167C359.937 212.766 361.185 215.153 363.017 217.027C364.849 218.901 367.183 220.177 369.725 220.694C372.266 221.211 374.9 220.945 377.294 219.931C379.688 218.917 381.734 217.2 383.173 214.997C384.613 212.794 385.381 210.203 385.381 207.553C385.376 204.001 383.995 200.596 381.539 198.085C379.083 195.573 375.754 194.16 372.28 194.155V194.155Z" fill="#093F68"/>
<path d="M247.302 224.384H233.14C230.646 224.384 228.255 223.371 226.492 221.568C224.729 219.765 223.738 217.319 223.738 214.769V200.285C223.738 197.733 224.728 195.286 226.491 193.48C228.253 191.674 230.645 190.657 233.14 190.653H247.302C249.799 190.657 252.192 191.673 253.957 193.479C255.723 195.284 256.716 197.732 256.721 200.285V214.769C256.716 217.321 255.722 219.766 253.956 221.569C252.19 223.372 249.797 224.384 247.302 224.384V224.384ZM233.14 194.155C231.553 194.16 230.033 194.808 228.913 195.957C227.792 197.106 227.163 198.662 227.163 200.285V214.769C227.168 216.389 227.799 217.941 228.919 219.086C230.038 220.231 231.556 220.877 233.14 220.881H247.302C248.889 220.881 250.411 220.238 251.534 219.092C252.658 217.946 253.291 216.392 253.296 214.769V200.285C253.296 198.659 252.664 197.1 251.54 195.951C250.416 194.801 248.892 194.155 247.302 194.155H233.14Z" fill="#093F68"/>
<path d="M246.754 268.956H223.173C222.719 268.956 222.283 268.772 221.962 268.443C221.641 268.115 221.461 267.67 221.461 267.205C221.461 266.741 221.641 266.295 221.962 265.967C222.283 265.638 222.719 265.454 223.173 265.454H246.754C247.208 265.454 247.644 265.638 247.965 265.967C248.286 266.295 248.467 266.741 248.467 267.205C248.467 267.67 248.286 268.115 247.965 268.443C247.644 268.772 247.208 268.956 246.754 268.956Z" fill="#093F68"/>
<path d="M279.771 268.956H256.19C255.736 268.956 255.3 268.772 254.979 268.443C254.658 268.115 254.478 267.67 254.478 267.205C254.478 266.741 254.658 266.295 254.979 265.967C255.3 265.638 255.736 265.454 256.19 265.454H279.771C280.225 265.454 280.661 265.638 280.982 265.967C281.303 266.295 281.484 266.741 281.484 267.205C281.484 267.67 281.303 268.115 280.982 268.443C280.661 268.772 280.225 268.956 279.771 268.956Z" fill="#093F68"/>
<path d="M312.788 268.956H289.19C288.736 268.956 288.3 268.772 287.979 268.443C287.658 268.115 287.477 267.67 287.477 267.205C287.477 266.741 287.658 266.295 287.979 265.967C288.3 265.638 288.736 265.454 289.19 265.454H312.788C313.242 265.454 313.678 265.638 313.999 265.967C314.32 266.295 314.501 266.741 314.501 267.205C314.501 267.67 314.32 268.115 313.999 268.443C313.678 268.772 313.242 268.956 312.788 268.956Z" fill="#093F68"/>
<path d="M345.788 268.956H322.207C321.753 268.956 321.317 268.772 320.996 268.443C320.675 268.115 320.494 267.67 320.494 267.205C320.494 266.741 320.675 266.295 320.996 265.967C321.317 265.638 321.753 265.454 322.207 265.454H345.788C346.242 265.454 346.678 265.638 346.999 265.967C347.32 266.295 347.501 266.741 347.501 267.205C347.501 267.67 347.32 268.115 346.999 268.443C346.678 268.772 346.242 268.956 345.788 268.956V268.956Z" fill="#093F68"/>
</svg>
